<?xml version="1.0" encoding="UTF-8"?>
<svg width="32" height="32" viewBox="0 0 32 32" fill="none" xmlns="http://www.w3.org/2000/svg">
  <!-- Animation definition - Rotate several times for 3 seconds and then stop -->
  <style>
    @keyframes rotate {
      from {
        transform: rotate(0deg);
      }
      to {
        transform: rotate(720deg);
      }
    }
    
    #gear {
      transform-origin: center;
      animation: rotate 3s cubic-bezier(.04,.54,.62,.98) forwards;
    }
  </style>
  
  <!-- logo with rotation applied to a group -->
  <!-- I copied the generated logo SVG from the navbar with inspect -->
  <g id="gear">
    <!-- Gear segments -->
    <path d="
      M 22.18192528825004 17.656441888656133
      L 31.45481322062509 20.141104721640332
      A 16 16 0 0 1 24.71422456024043 29.418729087126785
      L 19.485689824096173 21.367491634850715
      A 6.4 6.4 0 0 0 22.18192528825004 17.656441888656133
      Z
    " fill="#0099ff"></path>
    <path d="
      M 16.33495011995484 22.391229022429272
      L 16.837375299887103 31.97807255607318
      A 16 16 0 0 1 5.9308737432026035 28.434335383311534
      L 11.97234949728104 20.973734153324614
      A 6.4 6.4 0 0 0 16.33495011995484 22.391229022429272
      Z
    " fill="#0099ff"></path>
    <path d="
      M 10.025085270417907 18.29355487708992
      L 1.0627131760447721 21.733887192724804
      A 16 16 0 0 1 1.0627131760447703 10.2661128072752
      L 10.025085270417907 13.706445122910079
      A 6.4 6.4 0 0 0 10.025085270417907 18.29355487708992
      Z
    " fill="#0099ff"></path>
    <path d="
      M 11.972349497281037 11.026265846675388
      L 5.930873743202595 3.565664616688471
      A 16 16 0 0 1 16.837375299887103 0.02192744392681867
      L 16.33495011995484 9.608770977570728
      A 6.4 6.4 0 0 0 11.972349497281037 11.026265846675388
      Z
    " fill="#0099ff"></path>
    <path d="
      M 19.48568982409617 10.632508365149285
      L 24.714224560240424 2.5812709128732116
      A 16 16 0 0 1 31.45481322062509 11.858895278359668
      L 22.18192528825004 14.343558111343867
      A 6.4 6.4 0 0 0 19.48568982409617 10.632508365149285
      Z
    " fill="#0099ff"></path>

    <!-- Central pentagon -->
    <polygon points="16,10.879999999999999 20.86940936343119,14.417832988800269 19.009460491737464,20.14216701119973 12.990539508262538,20.14216701119973 11.130590636568812,14.417832988800269" fill="white"></polygon>
  </g>
  
</svg>